<?xml version="1.0" standalone="no"?>
<!DOCTYPE svg PUBLIC "-//W3C//DTD SVG 1.1//EN" "http://www.w3.org/Graphics/SVG/1.1/DTD/svg11.dtd" >
<svg xmlns="http://www.w3.org/2000/svg">
<metadata>Generated by IcoMoon</metadata>
<defs>
<font id="gramercy" horiz-adv-x="512">
<font-face units-per-em="512" ascent="480" descent="-32" />
<missing-glyph horiz-adv-x="512" />
<glyph unicode="&#x20;" d="" horiz-adv-x="256" />
<glyph unicode="&#xe600;" d="M491.52 376.499c-17.357-7.706-35.968-12.877-55.526-15.232 19.968 11.955 35.303 30.899 42.496 53.453-18.663-11.059-39.347-19.123-61.337-23.45-17.639 18.791-42.752 30.515-70.553 30.515-53.376 0-96.64-43.264-96.64-96.614 0-7.577 0.845-14.951 2.509-22.016-80.307 4.019-151.526 42.496-199.168 100.966-8.346-14.259-13.133-30.873-13.133-48.589 0-33.536 17.075-63.104 43.008-80.435-15.847 0.512-30.745 4.839-43.776 12.083 0-0.41 0-0.793 0-1.203 0-46.822 33.331-85.863 77.517-94.771-8.090-2.202-16.64-3.379-25.472-3.379-6.221 0-12.263 0.589-18.176 1.715 12.288-38.4 48-66.329 90.265-67.098-33.075-25.933-74.727-41.37-120.013-41.37-7.808 0-15.488 0.461-23.040 1.357 42.752-27.418 93.542-43.418 148.147-43.418 177.741 0 274.944 147.251 274.944 274.969 0 4.173-0.077 8.346-0.281 12.493 18.893 13.619 35.251 30.643 48.231 50.022z" />
<glyph unicode="&#xe601;" d="M420.284 6.022h-259.572v126.942h-92.359c-19.069 0-34.583 15.514-34.583 34.577v158.669c0 19.069 15.514 34.583 34.583 34.583h444.291c19.069 0 34.577-15.514 34.577-34.583v-158.669c0-19.069-15.514-34.577-34.577-34.577h-92.359v-126.942zM166.4 11.71h248.195v126.942h98.043c15.929 0 28.888 12.959 28.888 28.888v158.669c0 15.935-12.96 28.894-28.888 28.894h-444.285c-15.929 0-28.894-12.959-28.894-28.894v-158.669c0-15.929 12.959-28.888 28.894-28.888h98.048v-126.942zM388.546 37.755h-196.101v164.352h196.101v-164.352zM198.132 43.443h184.724v152.974h-184.724v-152.974zM496.771 284.493c-14.257 0-25.856 11.599-25.856 25.851s11.599 25.851 25.856 25.851 25.856-11.599 25.856-25.851-11.599-25.851-25.856-25.851zM496.771 330.505c-11.122 0-20.167-9.046-20.167-20.162s9.046-20.161 20.167-20.161 20.167 9.045 20.167 20.161-9.046 20.162-20.167 20.162zM420.278 386.841h-259.567v69.154h259.567v-69.154zM166.4 392.531h248.189v57.776h-248.189v-57.776z" horiz-adv-x="578" />
<glyph unicode="&#xe602;" d="M131.572 47.377c-9.517 0-17.943 6.065-20.963 15.099-3.852 11.56 2.406 24.104 13.955 27.966 27.989 9.336 74.934 29.651 74.934 60.808 0 19.604-15.815 35.555-35.249 35.555-7.077 0-28.603 0-63.539-61.645-3.909-6.912-11.281-11.202-19.246-11.202-3.789 0-7.549 0.984-10.871 2.856-10.604 6.013-14.341 19.53-8.334 30.134 32.945 58.129 64.398 84.042 101.99 84.042 43.804 0 79.446-35.772 79.446-79.747 0-30.856-18.238-73.728-105.125-102.747-2.292-0.74-4.642-1.12-6.998-1.12zM164.25 192.495c22.573 0 40.937-18.5 40.937-41.245 0-34.725-49.385-56.389-78.82-66.213-8.573-2.867-13.221-12.185-10.359-20.764 2.793-8.363 12.185-13.187 20.77-10.365 83.666 27.938 101.228 68.363 101.228 97.342 0 40.835-33.087 74.058-73.757 74.058-35.299 0-65.229-25.026-97.041-81.158-4.46-7.879-1.684-17.92 6.184-22.386 2.463-1.382 5.257-2.116 8.073-2.116 5.916 0 11.395 3.186 14.296 8.312 36.568 64.535 60.593 64.535 68.488 64.535zM444.091 199.031c-10.189 0-19.012 6.923-21.447 16.834-26.789 109.284-119.66 189.691-231.111 200.072-5.876 0.546-11.19 3.351-14.956 7.891s-5.541 10.28-4.995 16.156c1.138 12.163 11.714 21.174 24.059 19.951 130.185-12.118 238.655-105.979 269.921-233.552 2.907-11.833-4.358-23.825-16.19-26.727-1.69-0.416-3.464-0.626-5.279-0.626zM193.451 454.355c-8.442 0-15.405-6.4-16.196-14.899-0.41-4.364 0.91-8.625 3.703-11.992 2.799-3.373 6.742-5.45 11.111-5.86 113.857-10.61 208.743-92.746 236.1-204.385 1.809-7.361 8.357-12.498 15.923-12.498 1.354 0 2.68 0.154 3.931 0.461 8.784 2.162 14.176 11.059 12.021 19.849-30.68 125.224-137.154 217.35-264.932 229.245-0.563 0.057-1.109 0.079-1.661 0.079zM196.153 10.905c-8.499 0-16.105 4.733-19.854 12.356-2.606 5.302-2.987 11.293-1.081 16.885 1.906 5.587 5.876 10.098 11.173 12.704 46.341 22.761 71.862 57.611 71.862 98.122 0 51.769-41.842 93.884-93.275 93.884-36.153 0-62.549-15.61-88.251-52.196-4.136-5.877-10.894-9.381-18.090-9.381-4.557 0-8.949 1.382-12.692 4.010-9.961 7.014-12.373 20.832-5.382 30.794 34.037 48.418 73.569 70.963 124.416 70.963 75.799 0 137.466-61.941 137.466-138.075 0-57.435-35.197-107.662-96.563-137.802-3.066-1.502-6.338-2.264-9.728-2.264zM164.978 250.55c54.568 0 98.964-44.669 98.964-99.573 0-42.792-26.653-79.462-75.036-103.231-8.124-3.988-11.492-13.847-7.498-21.965 2.782-5.661 8.436-9.176 14.745-9.176 2.509 0 4.938 0.569 7.219 1.69 59.341 29.144 93.383 77.505 93.383 132.688 0 73-59.113 132.386-131.778 132.386-48.828 0-86.886-21.783-119.763-68.54-5.194-7.401-3.402-17.659 3.993-22.875 7.168-5.034 17.858-3.135 22.864 3.988 26.891 38.269 54.676 54.608 92.905 54.608zM289.49 8.965c-5.695 0-11.111 2.168-15.246 6.104-4.278 4.079-6.713 9.58-6.849 15.485-0.137 5.899 2.031 11.497 6.104 15.758 26.954 28.285 41.808 65.457 41.808 104.664 0 83.394-67.436 151.233-150.334 151.233-32.29 0-63.061-10.137-88.992-29.32-3.84-2.833-8.38-4.329-13.136-4.329-6.986 0-13.63 3.345-17.772 8.943-3.51 4.745-4.96 10.57-4.090 16.413s3.965 10.991 8.709 14.495c33.587 24.855 73.449 37.99 115.274 37.99 107.258 0 194.526-87.672 194.526-195.431 0-50.62-19.183-98.629-54.016-135.163-4.153-4.352-9.984-6.844-15.986-6.844zM164.972 307.899c86.033 0 156.023-70.4 156.023-156.923 0-40.675-15.406-79.252-43.378-108.595-3.026-3.168-4.637-7.316-4.534-11.697 0.103-4.386 1.906-8.471 5.086-11.497 6.315-6.024 17.186-5.752 23.2 0.552 33.815 35.47 52.446 82.079 52.446 131.232 0 104.625-84.713 189.742-188.837 189.742-40.602 0-79.291-12.749-111.889-36.869-3.522-2.606-5.814-6.423-6.462-10.764s0.432-8.664 3.038-12.192c3.117-4.221 7.931-6.639 13.193-6.639 3.533 0 6.9 1.11 9.751 3.214 26.903 19.911 58.846 30.435 92.365 30.435zM394.866 128.876c-12.185 0-22.101 9.916-22.101 22.101 0 115.24-93.212 208.993-207.786 208.993-16.56 0-33.047-1.963-48.993-5.826-1.718-0.427-3.487-0.637-5.251-0.637-10.206 0-19.018 6.946-21.43 16.896-1.394 5.734-0.472 11.668 2.606 16.708 3.072 5.041 7.924 8.579 13.659 9.973 19.365 4.704 39.355 7.089 59.409 7.089 138.945 0 251.983-113.579 251.983-253.19 0-12.192-9.91-22.107-22.096-22.107zM164.978 365.659c117.709 0 213.476-96.307 213.476-214.682 0-9.051 7.361-16.413 16.413-16.413 9.046 0 16.407 7.361 16.407 16.413 0 136.471-110.49 247.501-246.295 247.501-19.604 0-39.139-2.333-58.066-6.929-4.261-1.035-7.862-3.663-10.149-7.407-2.281-3.743-2.964-8.147-1.934-12.402 2.105-8.664 11.094-14.216 19.803-12.077 16.401 3.982 33.331 5.996 50.346 5.996zM142.888 107.429c-6.059 0-11.719 2.412-15.934 6.793-8.431 8.795-8.147 22.813 0.637 31.255l22.853 21.925c4.136 3.965 9.569 6.156 15.297 6.156 6.070 0 11.731-2.412 15.952-6.787 8.425-8.789 8.135-22.813-0.643-31.255l-22.852-21.925c-4.136-3.971-9.575-6.161-15.309-6.161zM165.74 167.867c-4.256 0-8.288-1.622-11.361-4.568l-22.852-21.925c-6.519-6.275-6.736-16.691-0.478-23.216 6.099-6.326 16.891-6.536 23.2-0.472l22.852 21.925c6.519 6.275 6.742 16.691 0.483 23.216-3.123 3.248-7.339 5.041-11.845 5.041z" horiz-adv-x="501" />
<glyph unicode="&#xe603;" d="M272.065 11.184h-192.825c-24.354 0-44.163 19.815-44.163 44.18v358.093c0 24.349 19.808 44.163 44.163 44.163h192.825c24.349 0 44.163-19.808 44.163-44.163v-358.093c0-24.36-19.815-44.18-44.163-44.18zM79.24 451.931c-21.214 0-38.474-17.26-38.474-38.474v-358.093c0-21.219 17.26-38.491 38.474-38.491h192.825c21.214 0 38.474 17.266 38.474 38.491v358.093c0 21.214-17.26 38.474-38.474 38.474h-192.825zM175.656 38.73c-16.76 0-30.395 13.637-30.395 30.401 0 16.754 13.637 30.39 30.395 30.39 16.76 0 30.395-13.63 30.395-30.39s-13.637-30.401-30.395-30.401zM175.656 93.832c-13.625 0-24.707-11.077-24.707-24.701 0-13.63 11.082-24.712 24.707-24.712s24.707 11.082 24.707 24.712c0 13.619-11.088 24.701-24.707 24.701zM288.683 121.373h-226.060v281.156h226.060v-281.156zM68.312 127.061h214.681v269.779h-214.681v-269.779zM233.586 417.496h-115.871v19.462h115.871v-19.462zM123.403 423.185h104.493v8.084h-104.493v-8.084z" horiz-adv-x="348" />
<glyph unicode="&#xe604;" d="M257.144 11.019c-59.825 0-116.065 23.296-158.362 65.587-42.303 42.297-65.593 98.531-65.593 158.362s23.296 116.065 65.593 158.362c42.297 42.297 98.537 65.593 158.362 65.593 59.83 0 116.065-23.296 158.361-65.593 42.297-42.297 65.587-98.537 65.587-158.362 0-59.83-23.296-116.065-65.587-158.362s-98.531-65.587-158.361-65.587zM257.144 453.234c-58.305 0-113.118-22.704-154.339-63.926-41.227-41.221-63.926-96.029-63.926-154.339 0-58.306 22.704-113.124 63.926-154.34 41.221-41.221 96.034-63.921 154.339-63.921s113.118 22.699 154.339 63.921 63.921 96.034 63.921 154.34-22.699 113.118-63.921 154.339-96.034 63.926-154.339 63.926zM257.172 38.65c-52.44 0-101.734 20.418-138.809 57.492-29.287 29.286-48.27 66.207-54.898 106.747l-0.091 0.563 0.125 0.552c3.675 15.639 10.57 27.955 20.503 36.608 0.501 0.529 0.671 1.9 0.279 3.516-1.121 4.602-6.912 11.458-19.541 15.633l-2.253 0.745 0.336 2.355c3.521 24.946 11.702 48.617 24.303 70.36l0.978 1.684 1.923-0.307c1.388-0.222 2.782-0.325 4.187-0.325 20.15 0 43.941 22.557 50.205 41.233l0.279 0.83 0.7 0.529c2.247 1.695 3.413 3.271 3.288 4.426-0.091 0.837-1.070 3.146-8.152 6.394l-4.357 1.997 3.84 2.867c33.94 25.338 74.445 38.73 117.134 38.73 29.73 0 58.22-6.428 84.696-19.114l1.735-0.831-0.12-1.917c-0.552-8.448-6.065-13.699-14.404-13.699-6.952 0-14.82 3.766-20.366 9.671-4.278 0.114-9.796-1.263-16.014-3.931-16.942-7.254-33.496-21.248-35.43-29.947-0.193-0.859-0.216-1.565-0.131-2.15 10.098 5.717 20.935 5.45 24.485-0.819 1.724-3.038 2.577-8.664-3.146-18.221-4.762-7.475-9.933-11.077-15.849-11.077-5.33 0-10.234 2.93-14.984 5.763-5.405 3.226-10.57 6.161-15.286 4.727 0.279-1.087 0.233-2.241-0.16-3.385-2.987-8.704-27.739-16.133-34.958-16.532l-0.307-0.017h-0.012c0.25-0.239 0.495-0.478 0.728-0.706 4.090-3.919 8.721-8.368 7.902-12.965-0.273-1.541-1.303-3.68-4.625-5.132l-0.677-0.205c-9.364-1.536-10.61-3.67-10.621-3.686 0.393-0.717 4.858-3.209 11.406-3.209 4.5 0 15.001 1.314 15.355 13.494l0.046 1.622 1.422 0.785c5.046 2.782 9.643 4.136 14.057 4.136 11.673 0 19.12-9.586 26.323-18.847 7.635-9.825 14.842-19.104 26.772-19.104h0.005c0.734 0 1.49 0.034 2.253 0.108-2.646 5.808-2.656 12.072 0.051 18.011 4.108 9.011 13.676 15.434 24.974 16.765l0.558 0.063 0.541-0.148c8.096-2.242 12.276-5.154 13.152-9.171 1.206-5.524-4.505-10.337-9.541-14.581-1.854-1.559-4.847-4.079-5.57-5.376 0.461-0.273 1.576-0.756 4.079-1.201l2.844-0.5-0.546-2.839c-1.798-9.353-13.38-14.245-25.634-19.428-8.385-3.544-17.050-7.214-21.743-12.123l-0.87-0.916-1.263 0.034c-16.93 0.461-29.065 10.707-40.8 20.617-10.309 8.704-20.048 16.93-31.823 16.93-5.945 0-12.095-2.048-18.802-6.263l-0.916-0.37c-10.257-2.202-19.576-9.575-26.249-20.759-8.448-14.166-11.327-32.182-7.327-45.91 11.548-33.303 36.278-36.933 69.951-38.4l1.184-0.318c20.935-10.854 24.457-38.998 27.858-66.213 1.69-13.534 3.294-26.334 6.9-36.659 11.469-10.536 33.94-27.756 48.037-27.756 3.226 0 5.695 0.916 7.555 2.799 3.089 3.135 4.596 9.011 4.471 17.471-4.654 27.773 23.877 76.447 42.764 108.652 3.635 6.201 6.895 11.753 9.455 16.396 5.308 8.772 6.281 12.168 6.417 13.375-2.486-0.125-6.184-1.462-10.087-2.861-6.315-2.27-13.477-4.853-19.786-4.853-5.746 0-9.921 2.168-12.413 6.434l-0.353 0.955c-1.684 9.865-0.928 16.288 2.373 20.201 2.287 2.714 5.627 4.034 10.206 4.034 4.75 0 10.291-1.411 16.145-2.913 6.104-1.553 12.413-3.168 17.914-3.168 3.766 0 6.724 0.762 9.039 2.321l1.519 1.024 1.559-0.962c4.881-3.003 10.86-3.413 16.065-3.413 1.837 0 3.68 0.057 5.501 0.114 1.837 0.057 3.652 0.108 5.416 0.108 11.554 0 22.545-2.583 24.673-21.311 1.974-10.968 4.278-11.662 4.301-11.662 0.165 0 1.718 0.154 5.342 5.507l7.942 11.697-2.799-13.858c-7.173-35.47-24.024-68.056-48.89-94.657h0.159l-4.83-4.858c-37.046-37.086-86.341-57.503-138.775-57.503zM69.171 203.252c6.519-39.139 24.906-74.781 53.214-103.082 36.005-36 83.872-55.825 134.787-55.825 9.267 0 18.432 0.654 27.443 1.952-18.034 6.627-38.053 24.861-40.733 27.346l-0.506 0.466-0.233 0.649c-3.988 11.031-5.661 24.389-7.429 38.525-3.191 25.503-6.491 51.86-24.291 61.582-34.469 1.541-61.815 5.803-74.479 42.325-4.46 15.309-1.359 35.095 7.862 50.552 7.384 12.379 17.829 20.633 29.446 23.296 7.481 4.62 14.484 6.872 21.407 6.872 13.858 0 24.855-9.29 35.493-18.267 10.695-9.029 21.737-18.358 36.090-19.223 5.581 5.262 14.279 8.943 22.704 12.504 8.897 3.766 18.057 7.635 21.219 12.703-2.514 0.78-4.767 2.082-5.416 4.5-1.070 3.976 2.935 7.35 7.566 11.253 3.231 2.725 8.123 6.849 7.646 9.017-0.12 0.581-1.12 2.606-8.573 4.745-9.091-1.235-16.691-6.332-19.911-13.403-2.44-5.359-1.877-11.111 1.587-16.185l2.338-3.431-4.045-0.944c-2.52-0.591-5-0.888-7.367-0.888h-0.005c-14.712 0-23.507 11.315-31.266 21.305-6.65 8.562-12.936 16.651-21.828 16.651-3.055 0-6.315-0.887-9.944-2.708-1.189-12.738-11.446-17.328-20.941-17.328-8.032 0-16.606 3.231-17.049 8.653-0.552 6.73 10.69 8.778 14.962 9.489 0.768 0.381 0.99 0.694 1.007 0.78 0.285 1.604-4.29 5.99-6.24 7.862-3.561 3.419-5.917 5.678-4.807 8.431 0.649 1.615 2.213 2.435 4.648 2.435 0.91 0 2.111-0.108 3.663-0.347 9.745 0.688 29.747 9.307 29.627 12.817-0.012 0.034-0.114 0.222-0.421 0.489l-2.907 2.531 3.277 2.031c2.594 1.61 5.359 2.423 8.226 2.423 5.609 0 10.655-3.010 15.53-5.922 4.267-2.548 8.306-4.955 12.066-4.955 2.435 0 6.224 0.87 11.014 8.38 3.277 5.472 4.392 10.029 3.038 12.43-1.087 1.911-3.795 2.196-5.313 2.196-4.067 0-9.079-1.809-13.75-4.966l-2.060-1.388-1.655 1.854c-2.23 2.498-2.981 5.718-2.184 9.313 2.634 11.85 22.164 26.846 38.747 33.94 7.657 3.288 14.552 4.767 19.843 4.306l1.138-0.108 0.751-0.865c4.534-5.234 11.168-8.618 16.89-8.618 3.373 0 7.401 1.183 8.482 6.508-25.173 11.731-52.207 17.681-80.384 17.681-39.919 0-77.87-12.055-110.040-34.912 4.557-2.708 6.878-5.547 7.231-8.773 0.341-3.117-1.28-6.155-4.819-9.034-6.616-18.358-30.976-44.293-55.313-44.293-1.041 0-2.082 0.046-3.106 0.142-11.326-19.985-18.825-41.614-22.317-64.364 16.709-6.235 20.303-15.963 21.015-18.893 0.876-3.584 0.182-6.861-1.894-8.994-9.056-7.902-15.303-19.030-18.728-33.218zM367.013 214.004c2.924 0 4.312-1.377 4.961-2.537 1.565-2.771 1.024-6.991-6.502-19.422-2.526-4.574-5.808-10.178-9.472-16.424-18.466-31.5-46.37-79.092-42.018-105.267 0.137-8.123-1.001-14.159-3.453-18.483 29.753 8.63 57.077 24.49 79.81 46.706l1.587 1.593c24.308 24.308 41.421 54.255 49.846 87.080-0.87-0.392-1.781-0.62-2.725-0.62-6.173 0-8.55 8.835-9.927 16.526-1.587 13.926-7.657 16.447-19.046 16.447-1.712 0-3.464-0.051-5.245-0.108-1.877-0.057-3.777-0.114-5.672-0.114-5.507 0-11.81 0.421-17.516 3.39-2.969-1.587-6.486-2.361-10.666-2.361-6.224 0-12.88 1.701-19.32 3.345-5.501 1.405-10.701 2.731-14.74 2.731-3.726 0-5.125-1.149-5.854-2.014-2.031-2.412-2.44-7.464-1.206-15.036 0.978-1.485 2.833-3.197 7.242-3.197 5.319 0 11.975 2.401 17.863 4.512 4.847 1.747 9.029 3.254 12.055 3.254z" horiz-adv-x="514" />
<glyph unicode="&#xe605;" d="M337.771 447.639l72.24-98.992-9.889-7.217-72.24 98.992 9.889 7.217zM303.233 444.736l10.228-6.727-77.184-117.357-10.228 6.727 77.184 117.356zM143.669 376.165l64.968-52.734-7.708-9.495-64.968 52.734 7.708 9.495zM105.954 373.241l9.66-7.5-75.332-97.040-9.66 7.5 75.332 97.040zM416.409 345.897c6.776 0 12.279-5.503 12.279-12.279 0-6.763-5.503-12.267-12.279-12.267-6.763 0-12.279 5.504-12.279 12.267 0 6.776 5.516 12.279 12.279 12.279zM416.409 358.127c-13.526 0-24.509-10.97-24.509-24.509 0-13.526 10.971-24.497 24.509-24.497s24.509 10.971 24.509 24.497c0 13.538-10.971 24.509-24.509 24.509zM318.459 467.77c6.763 0 12.279-5.503 12.279-12.279 0-6.763-5.516-12.267-12.279-12.267-6.776 0-12.291 5.504-12.291 12.267 0 6.776 5.516 12.279 12.291 12.279zM318.459 480c-13.538 0-24.522-10.971-24.522-24.509 0-13.526 10.971-24.497 24.522-24.497 13.526 0 24.509 10.97 24.509 24.497 0 13.538-10.971 24.509-24.509 24.509zM220.19 321.4c6.763 0 12.279-5.503 12.279-12.279 0-6.763-5.516-12.267-12.279-12.267s-12.279 5.503-12.279 12.267c0 6.776 5.516 12.279 12.279 12.279zM220.19 333.63c-13.538 0-24.509-10.97-24.509-24.509 0-13.526 10.97-24.497 24.509-24.497 13.526 0 24.509 10.971 24.509 24.497 0 13.538-10.982 24.509-24.509 24.509zM122.754 394.401c6.763 0 12.279-5.503 12.279-12.279 0-6.763-5.516-12.267-12.279-12.267s-12.279 5.504-12.279 12.267c0 6.776 5.516 12.279 12.279 12.279zM122.754 406.632c-13.538 0-24.509-10.971-24.509-24.509 0-13.526 10.971-24.497 24.509-24.497s24.509 10.971 24.509 24.497c0 13.538-10.97 24.509-24.509 24.509zM24.497 271.709c6.763 0 12.279-5.503 12.279-12.279 0-6.763-5.516-12.267-12.279-12.267-6.751 0-12.267 5.504-12.267 12.267 0 6.776 5.516 12.279 12.267 12.279zM24.497 283.94c-13.539 0-24.497-10.97-24.497-24.509 0-13.526 10.97-24.497 24.509-24.497 13.538 0 24.509 10.97 24.509 24.497 0 13.538-10.971 24.509-24.521 24.509zM36.776-19.77h-24.546v170.231h24.546v-170.231zM49.006 162.69h-49.006v-194.69h49.006v194.69zM135.020-19.77h-24.546v293.779h24.546v-293.779zM147.25 286.239h-49.006v-318.239h49.006v318.239zM232.457-19.77h-24.546v219.53h24.546v-219.53zM244.687 211.99h-49.006v-243.99h49.006v243.99zM330.726-19.77h-24.546v366.914h24.546v-366.914zM342.956 359.375h-49.006v-391.375h49.006v391.375zM428.688-19.77h-24.546v242.315h24.546v-242.315zM440.919 234.774h-49.006v-266.774h49.006v266.774z" horiz-adv-x="441" />
<glyph unicode="&#xe606;" d="M256-32c-141.162 0-256 114.838-256 256s114.838 256 256 256 256-114.838 256-256-114.838-256-256-256zM256 467.512c-134.269 0-243.512-109.243-243.512-243.512s109.243-243.512 243.512-243.512c134.269 0 243.512 109.243 243.512 243.512s-109.243 243.512-243.512 243.512zM149.492 88.745v270.211l270.923-135.106-270.923-135.106zM161.98 338.775v-229.863l230.463 114.938-230.463 114.925z" />
<glyph unicode="&#xe607;" d="M554.463 51.912l-91.262 89.462h-78.065v13.536h83.587l72.203-70.768v382.322h-364.846v-74.504h-13.536v88.041h391.919zM0-32v430.741h391.933v-338.639h-301.699l-90.234-92.101zM13.537 385.204v-384.054l71.012 72.474h293.848v311.58h-364.86z" horiz-adv-x="555" />
<glyph unicode="&#xe608;" d="M442.464 468.854c8.014 0 14.512-6.486 14.512-14.5v-460.709c0-8.014-6.498-14.512-14.512-14.512h-416.829c-8.002 0-14.489 6.498-14.489 14.512v460.709c0 8.014 6.498 14.5 14.489 14.5h416.829zM442.464 480h-416.829c-14.121 0-25.634-11.502-25.634-25.645v-460.709c0-14.144 11.502-25.657 25.634-25.657h416.829c14.154 0 25.657 11.514 25.657 25.657v460.709c0 14.144-11.502 25.645-25.657 25.645zM424.229 413.818h-379.647v21.6h379.647v-21.6zM435.375 446.563h-401.938v-43.891h401.938v43.891zM180.423 26.402v116.637l87.091 93.6-122.154-84.505-89.052 33.303 324.154 180.077-42.821-285.301-99.863 37.349-57.355-91.159zM191.568 138.659v-73.615l41.606 66.149 95.483-35.71 37.416 249.291-283.25-157.351 60.988-22.815 173.947 117.239-126.189-143.185z" horiz-adv-x="468" />
<glyph unicode="&#xe609;" d="M163.862 107.274l7.457-9.216-153.899-124.522-7.457 9.216 153.899 124.522zM11.854 241.811l224.544-202.732 7.942 7.16 216.661 194.814v-244.211c0-3.118-0.889-6.176-2.56-8.867l-7.006-6.271c-2.418-1.221-4.908-1.825-7.421-1.825h-415.174c-2.264 0-4.552 0.522-6.816 1.553l-7.255 6.117c-1.446 2.122-2.916 5.299-2.916 9.282v244.982zM5.050 263.908c-3.177-4.623-5.050-10.219-5.050-16.264v-250.814c0-6.579 2.288-12.589 6.010-17.426l9.46-7.978c4.018-2.122 8.512-3.426 13.36-3.426h415.162c5.24 0 10.088 1.505 14.308 3.947l9.128 8.168c3.366 4.718 5.406 10.467 5.406 16.702v250.826c0 5.821-1.755 11.226-4.73 15.755l-231.692-208.364-231.361 208.873zM231.278 365.096h11.855v-226.002h-11.855v226.002zM139.833 257.898l-8.441 8.321 105.811 107.317 105.811-107.317-8.452-8.322-97.359 98.747zM460.777 253.962l-224.343 209.81-223.525-208.862-8.097 8.666 231.621 216.424 232.451-217.373zM308.384 107.297l153.86-124.581-7.46-9.213-153.86 124.58 7.46 9.213z" horiz-adv-x="473" />
<glyph unicode="&#xe60a;" d="M227.525 465.294l-7.084-9.662c12.054 1.918 24.407 2.927 36.994 2.927 85.484 0 160.425-45.977 201.422-114.493l12.497-3.979 3.731 10.372c-43.676 74.888-124.878 125.326-217.649 125.326-13.659 0-27.060-1.108-40.133-3.211l10.223-7.279z" horiz-adv-x="594" />
<glyph unicode="&#xe60b;" d="M287.793 110.177c-29.675 24.873-17.653 52.593 4.026 91.79 3.274 5.938 6.475 11.74 9.274 17.329 16.082 32.147 13.265 52.481 10.849 60.669 6.258 23.109 11.801 87.272-20.574 122.236-19.276 20.821-47.532 26.85-84.106 18.004-38.56-0.237-66.608-12.166-83.403-35.468-28.962-40.178-13.722-100.308-9.552-114.431-8.139-28.954 8.454-48.999 11.948-52.804 3.943-5.469 48.101-68.805 11.133-107.966l-12.632-5.589c-32.097-14.195-55.859-24.803-75.591-37.664 17.47-17.745 37.767-32.718 59.851-43.979 32.495-16.578 67.563-24.983 104.231-24.983 19.82 0 39.531 2.543 58.587 7.564l8.068 2.123 7.789 2.668c33.138 11.356 62.945 29.994 87.63 54.538-37.66 29.785-77.948 43.111-87.529 45.963z" horiz-adv-x="415" />
<glyph unicode="&#xe60c;" d="M213.599 251.121h87.425v-1.386h-87.424v1.386zM295.7 329.111l-19.399 19.397c-0.249 0.25-0.596 0.406-0.98 0.406-0.383 0-0.729-0.155-0.978-0.406l-49.86-49.904c-0.176-0.184-0.312-0.404-0.369-0.662l-0.029 0.004-5.541-24.938 0.019-0.004c-0.021-0.1-0.052-0.195-0.052-0.298 0-0.764 0.62-1.386 1.386-1.386 0.103 0 0.197 0.040 0.295 0.060l0.006-0.029 24.94 5.543-0.006 0.027c0.261 0.058 0.504 0.165 0.685 0.349l49.881 49.881c0.252 0.25 0.408 0.597 0.408 0.98 0.002 0.385-0.153 0.729-0.406 0.982zM243.456 279.361l-21.73-4.831 4.829 21.732h8.588v-6.927c0-0.766 0.62-1.388 1.386-1.388h6.927v-8.587zM246.227 281.593v7.74c0 0.762-0.62 1.388-1.386 1.388h-6.927v6.927c0 0.766-0.62 1.384-1.386 1.384h-7.74l36.142 36.148 17.438-17.44-36.142-36.146zM284.332 319.697l-17.438 17.437 8.432 8.435 17.44-17.44-8.433-8.431z" horiz-adv-x="515" />
<glyph unicode="&#xe60d;" d="M66.099 343.014c-6.938 6.861-18.151 6.861-25.063 0-6.912-6.835-6.912-17.946 0-24.807l202.445-200.448c6.938-6.861 18.125-6.861 25.063 0l202.445 200.448c6.912 6.861 6.938 17.945 0 24.806s-18.176 6.861-25.063 0.026l-189.927-182.81-189.901 182.784z" />
<glyph unicode="&#xe60e;" d="M143.352 40.499c-6.861-6.938-6.861-18.125 0-25.063s17.946-6.938 24.806 0l200.448 202.419c6.861 6.938 6.861 18.151 0 25.063l-200.448 202.445c-6.861 6.938-17.946 6.938-24.806 0s-6.861-18.125 0-25.063l182.784-189.901-182.784-189.901z" />
<glyph unicode="&#xe60f;" d="M255.008-32c0 0-159.008 224.992-159.008 320.992 0 189.008 159.008 191.008 159.008 191.008s160.992-2 160.992-190c0-98.992-160.992-322-160.992-322zM256 384c-35.344 0-64-28.656-64-64s28.656-64 64-64 64 28.656 64 64-28.656 64-64 64z" />
<glyph unicode="&#xe610;" d="M285.391 206.536c3.408 5.111 5.111 11.075 5.111 17.89 0 16.186-11.075 28.965-25.558 33.224v127.787c0 5.111-3.408 8.519-8.519 8.519-5.112 0-8.519-3.408-8.519-8.519v-128.639c-14.482-3.407-25.558-17.038-25.558-33.224 0-18.742 15.334-34.077 34.077-34.077 5.964 0 11.927 1.704 17.038 4.26l49.411-49.411c3.408-3.408 8.519-3.408 11.927 0s3.408 8.519 0 11.927l-49.411 50.263zM256.426 206.536c-9.371 0-17.038 7.667-17.038 17.038s7.667 17.038 17.038 17.038 17.038-7.667 17.038-17.038-7.667-17.038-17.038-17.038zM460.034-3.035l-23.853 71.56c36.632 41.744 57.93 96.266 57.93 155.9 0 132.047-106.489 238.536-238.536 238.536s-238.536-106.489-238.536-238.536c0-59.634 22.15-114.156 57.93-155.9l-23.853-71.56c0-0.852-0.852-1.704-0.852-2.555 0-5.111 3.407-8.519 8.519-8.519h391.88c5.111 0 8.519 3.408 8.519 8.519 1.704 0 0.852 1.704 0.852 2.555v0zM72.412 2.077l17.038 51.115c22.15-22.15 49.411-40.040 78.376-51.115h-95.415zM34.928 223.574c0 122.675 98.822 221.498 221.498 221.498s221.498-98.822 221.498-221.498c0-122.675-98.822-221.498-221.498-221.498s-221.498 99.674-221.498 221.498zM344.173 2.077c29.817 11.927 56.226 29.817 78.376 51.115l17.038-51.115h-95.414z" />
<glyph unicode="&#xe611;" d="M494.11 167.348v0l-72.413 193.385-4.26 17.038c-67.301 39.188-93.711 25.558-133.75 4.26-0.852 0-1.704-0.852-1.704-0.852v55.375c0 14.483-11.075 25.558-25.558 25.558-12.779 0-23.001-9.371-25.558-22.15-0.852 0.852-1.704 0.852-2.555 1.704-40.040 21.298-66.45 34.928-133.75-5.112l-3.407-15.334-73.264-194.237c0-0.852-0.852-1.704-0.852-2.555 0-1.704 0-2.556 0.852-3.407 5.111-31.521 40.892-56.226 84.34-56.226s79.228 24.706 84.34 56.226c0.852 0.852 0.852 2.555 0.852 3.407s0 1.704-0.852 2.555v0l-74.117 199.348c51.966 28.113 71.561 18.742 108.193-0.852 3.407-1.704 6.815-3.407 10.223-5.111v-384.213h-59.634c-18.742 0-34.077-15.334-34.077-34.077v-17.038h238.536v17.038c0 18.742-15.334 34.077-34.077 34.077h-59.634v324.579c3.408 1.704 6.815 3.407 9.371 5.112 36.632 19.594 56.226 29.817 108.193 0.852l-74.969-199.348c0-0.852-0.852-1.704-0.852-2.555 0-1.704 0-2.555 0.852-3.408 5.111-31.521 40.892-56.226 84.339-56.226s79.228 24.706 84.339 56.226c0.852 0.852 0.852 2.555 0.852 3.408 0.852 0.852 0 1.704 0 2.555zM103.082 180.978c-31.521 0-57.078 14.483-65.597 34.077h131.195c-8.519-19.594-34.929-34.077-65.597-34.077zM166.975 232.093h-128.639l64.746 172.086 63.894-172.086zM247.907 436.553c0 5.111 3.407 8.519 8.519 8.519s8.519-3.408 8.519-8.519v-400.399h-17.038v400.399zM341.618 19.115c9.371 0 17.038-7.667 17.038-17.038h-204.459c0 9.371 7.667 17.038 17.038 17.038h170.382zM409.771 344.546l64.745-172.087h-129.491l64.745 172.087zM409.771 121.344c-31.521 0-57.078 14.483-65.598 34.077h131.195c-8.519-19.594-34.928-34.077-65.598-34.077z" />
<glyph unicode="&#xe612;" d="M247.907 284.912c34.076 17.038 25.557 25.558 42.595 25.558s17.038 34.077-17.038 34.077-17.038-42.596-42.596-17.038 8.519 17.038 25.558 34.077-17.038 25.558-25.558 8.519c0 0-25.558 25.558-42.596-17.038 0 0-34.077 20.446-46.004 41.744-17.038-11.927-32.373-25.558-45.151-41.744 6.816-3.408 15.335-9.371 23.001-17.038 25.558-25.558 8.519-51.115 0-68.153s25.558-42.596 25.558-42.596 25.558-17.038 51.115-25.558c0 0 17.038 8.519-17.038 25.558 0 0-25.558 25.558 8.519 34.077 25.558 8.519 8.519-17.038 25.558-17.038s0 25.558 34.077 42.596zM309.245 178.423c-16.187 8.519 7.667 8.519-31.521 24.706-40.040 16.187-63.894 0-63.894-24.706 0-49.411 31.521-57.078 31.521-57.078-7.667-40.892 0-57.078 7.667-65.597s13.631-20.446 20.446-16.187c6.815 4.26 11.075 57.078 34.928 81.784 24.705 23.853 17.038 48.559 0.852 57.078zM256.426 463.813c-132.047 0-238.536-106.489-238.536-238.536s106.489-238.536 238.536-238.536 238.536 106.489 238.536 238.536c0 132.046-106.489 238.536-238.536 238.536zM256.426 3.781c-122.675 0-221.498 98.822-221.498 221.498s98.822 221.498 221.498 221.498 221.498-98.822 221.498-221.498c0-121.823-98.822-221.498-221.498-221.498zM423.401 342.842c5.111-23.001-47.707-22.15-47.707-74.968 0-42.596 48.559-76.672 78.376-92.859 4.26 16.187 6.815 32.373 6.815 50.263 0 44.299-13.63 84.34-37.484 117.564zM408.067 362.436c-22.15 24.705-49.411 43.447-80.932 55.374-0.852-1.704-1.704-2.555-2.555-4.26-8.519-8.519-25.558-34.076 8.519-34.076 0 0-17.038-51.115 8.519-51.115 22.15-0.852 44.3 44.299 66.45 34.077z" />
<glyph unicode="&#xe613;" d="M0 56.286v326.286q0 23.143 16.572 39.714t39.715 16.572h326.286q23.143 0 39.714-16.572t16.572-39.714v-326.286q0-23.143-16.572-39.714t-39.714-16.572h-326.286q-23.143 0-39.715 16.572t-16.572 39.714zM48.857 68q0-7.428 5-12.428t12.428-5h305.428q7.143 0 12.286 5t5.143 12.428v185.143h-38.572q5.714-18 5.714-37.428 0-36-18.286-66.428t-49.714-48.143-68.572-17.714q-56.286 0-96.285 38.714t-40 93.572q0 19.428 5.715 37.428h-40.285v-185.143zM131.714 220.286q0-35.428 25.857-60.428t62.143-25q36.572 0 62.428 25t25.857 60.428-25.857 60.428-62.428 25q-36.286 0-62.143-25t-25.857-60.428zM300 323.143q0-8.286 5.714-14t14-5.714h49.714q8.286 0 14 5.714t5.714 14v47.143q0 8-5.714 13.857t-14 5.857h-49.714q-8.286 0-14-5.857t-5.714-13.857v-47.143z" />
<glyph unicode="&#xe614;" d="M27.143 216.857v84.572h72.857v62.285q0 53.143 29.714 82.429t79.143 29.286q42 0 65.143-3.429v-75.428h-44.857q-24.571 0-33.143-10.286t-8.572-30.857v-54h83.714l-11.143-84.572h-72.572v-216.857h-87.428v216.857h-72.857z" horiz-adv-x="293" />
<glyph unicode="&#xe615;" d="M201.904 175.867v-51.115c0-9.371 7.667-17.038 17.038-17.038h187.421c9.371 0 17.038 7.667 17.038 17.038v51.115c0 9.371-7.667 17.038-17.038 17.038h-187.421c-9.371 0-17.038-7.667-17.038-17.038zM406.363 124.752h-187.421v51.115h187.421v-51.115zM474.516 90.675h-255.574c-9.371 0-17.038-7.667-17.038-17.038v-51.115c0-9.371 7.667-17.038 17.038-17.038h255.574c9.371 0 17.038 7.667 17.038 17.038v51.115c0 9.371-7.667 17.038-17.038 17.038zM474.516 22.522h-255.574v51.115h255.574v-51.115zM201.904 278.096v-51.115c0-9.371 7.667-17.038 17.038-17.038h119.268c9.371 0 17.038 7.667 17.038 17.038v51.115c0 9.371-7.667 17.038-17.038 17.038h-119.268c-9.371 0-17.038-7.667-17.038-17.038zM338.209 226.982h-119.268v51.115h119.268v-51.115zM241.944 337.731c0 2.555-0.852 4.26-2.555 5.964l-102.23 102.229c-1.704 1.704-3.407 2.556-5.964 2.556s-4.26-0.852-5.963-2.556l-102.23-102.229c-1.704-1.704-2.555-3.407-2.555-5.964 0-5.111 3.407-8.519 8.519-8.519h59.634v-306.689c0-9.371 7.667-17.038 17.038-17.038h51.115c9.371 0 17.038 7.667 17.038 17.038v306.689h59.634c5.112 0 8.519 4.26 8.519 8.519zM173.791 346.25h-17.038v-323.727h-51.115v323.727h-55.374l81.783 81.784 81.784-81.784h-40.040z" />
<glyph unicode="&#xe616;" d="M0 219.429q0 59.714 29.428 110.143t79.857 79.857 110.143 29.428 110.143-29.428 79.857-79.857 29.428-110.143q0-71.714-41.857-129t-108.143-79.286q-7.714-1.428-11.286 2t-3.572 8.572v60.286q0 27.714-14.857 40.572 16.286 1.714 29.286 5.143t26.857 11.143 23.143 19 15.143 30 5.857 43q0 34.572-22.572 58.857 10.572 26-2.286 58.286-8 2.572-23.143-3.143t-26.286-12.572l-10.857-6.857q-26.572 7.429-54.857 7.429t-54.857-7.428q-4.572 3.143-12.143 7.714t-23.857 11-24.572 3.857q-12.572-32.285-2-58.285-22.572-24.286-22.572-58.857 0-24.285 5.857-42.857t15-30 23-19.143 26.857-11.143 29.285-5.143q-11.428-10.286-14-29.428-6-2.857-12.857-4.286t-16.285-1.428-18.715 6.143-15.857 17.857q-5.428 9.143-13.857 14.857t-14.143 6.857l-5.715 0.857q-6 0-8.285-1.286t-1.428-3.286 2.572-4 3.715-3.428l2-1.428q6.285-2.857 12.428-10.857t9-14.572l2.857-6.572q3.715-10.857 12.572-17.572t19.143-8.572 19.857-2 15.857 1l6.572 1.143q0-10.857 0.143-25.428t0.143-15.428q0-5.143-3.714-8.572t-11.428-2q-66.285 22-108.143 79.286t-41.857 129z" />
<glyph unicode="&#xe617;" d="M220.57 147.763c-13.44-70.477-29.85-138.061-78.49-173.363-15.001 106.547 22.041 186.547 39.245 271.488-29.338 49.408 3.533 148.787 65.433 124.288 76.16-30.131-65.945-183.629 29.44-202.803 99.61-20.019 140.262 172.8 78.515 235.495-89.241 90.573-259.789 2.099-238.797-127.513 5.094-31.693 37.837-41.319 13.082-85.043-57.114 12.647-74.163 57.703-71.962 117.76 3.533 98.278 88.32 167.091 173.363 176.614 107.571 12.058 208.512-39.475 222.413-140.647 15.693-114.176-48.512-237.85-163.558-228.941-31.155 2.381-44.237 17.817-68.685 32.666z" />
<glyph unicode="&#xe618;" d="M96 416l320-192-320-192z" />
<glyph unicode="&#xe619;" d="M395.749 207.954c-0.647 64.841 52.879 95.938 55.271 97.483-30.076 44.010-76.925 50.039-93.621 50.736-39.871 4.037-77.798-23.474-98.033-23.474-20.184 0-51.409 22.877-84.476 22.276-43.458-0.646-83.529-25.269-105.906-64.19-45.152-78.349-11.563-194.42 32.445-257.963 21.504-31.102 47.146-66.038 80.813-64.79 32.421 1.294 44.681 20.979 83.878 20.979s50.214-20.979 84.525-20.335c34.887 0.648 56.991 31.699 78.346 62.898 24.695 36.084 34.863 71.019 35.462 72.813-0.774 0.353-68.030 26.118-68.704 103.567zM331.281 398.239c17.869 21.679 29.93 51.756 26.64 81.761-25.739-1.048-56.939-17.145-75.405-38.775-16.571-19.188-31.074-49.813-27.187-79.218 28.733-2.242 58.064 14.602 75.952 36.232z" />
<glyph unicode="&#xe61a;" d="M0 132.857v122.857q0 12 8.572 20.572t20.857 8.572q12 0 20.572-8.572t8.572-20.572v-122.857q0-12.286-8.428-20.857t-20.715-8.572-20.857 8.572-8.572 20.857zM68.857 289.714q0 33.428 18.285 61.571t49.143 43.857l-20.285 37.428q-2 3.714 1.428 5.714 3.715 1.715 5.715-1.714l20.572-37.714q27.143 12 57.429 12t57.428-12l20.572 37.714q2 3.429 5.714 1.714 3.428-2 1.428-5.714l-20.286-37.428q30.572-15.714 48.857-43.857t18.286-61.571h-264.286zM70 89.143v190.286h262.286v-190.286q0-13.143-9.143-22.286t-22-9.143h-21.428v-64.857q0-12.286-8.572-20.857t-20.857-8.572-20.857 8.572-8.572 20.857v64.857h-39.428v-64.857q0-12.286-8.572-20.857t-20.857-8.572q-12 0-20.571 8.572t-8.572 20.857l-0.285 64.857h-21.143q-13.143 0-22.285 9.143t-9.143 22.286zM130 348.572q0-4.571 3.143-7.857t7.714-3.286 7.857 3.286 3.286 7.857-3.286 7.857-7.857 3.285-7.714-3.285-3.143-7.857zM250.286 348.572q0-4.571 3.286-7.857t7.857-3.286 7.714 3.286 3.143 7.857-3.143 7.857-7.714 3.285-7.857-3.285-3.286-7.857zM343.714 132.857v122.857q0 12.286 8.572 20.715t20.572 8.428q12.286 0 20.857-8.428t8.572-20.714v-122.857q0-12.286-8.572-20.857t-20.857-8.572q-12 0-20.572 8.572t-8.572 20.857z" horiz-adv-x="403" />
<glyph unicode="&#xe690;" d="M360.459 465.81c-24.058 9.416-49.3 14.19-74.999 14.19-63.983 0-125.046-29.106-167.804-79.94-83.942-45.105-129.088-131.755-115.157-221.259 13.657-87.716 83.709-158.149 174.579-175.793 36.136-22.906 77.447-35.008 119.585-35.008 48.111 0 93.15 15.602 130.281 45.125 70.779 56.293 97.645 152.593 67.137 240.121 4.068 94.379-49.427 179.628-133.624 212.564zM353.704 448.552c63.658-24.907 108.077-82.795 119.286-151.1-5.327 8.568-11.229 16.811-17.72 24.693-78.834 95.665-185.702 105.995-227.998 105.995-13.398 0-26.054-0.98-36.603-2.834-9.076-1.62-18.024-3.708-26.78-6.283 53.714 41.844 126.686 54.241 189.815 29.528zM20.823 181.661c-10.528 67.62 16.105 133.542 69.305 177.662-4.134-7.73-7.841-15.744-11.123-23.967-40.351-101.221-26.735-195.565 40.504-280.416 5.729-7.252 11.844-14.114 18.325-20.564-61.789 26.582-106.787 81.637-117.010 147.286zM221.736 17.264c-12.636 0-25.313 1.113-37.669 3.301-18.944 12.438-35.749 27.863-50.026 45.867-62.809 79.28-75.527 167.444-37.817 262.062 8.269 20.712 19.493 39.844 33.343 56.888 20.072 10.376 41.697 17.664 64.344 21.646 6.628 1.173 17.791 2.58 33.363 2.58 39.656 0 139.87-9.675 213.671-99.266 14.876-18.045 26.466-38.178 34.43-59.849-1.32-22.047-6.029-43.865-13.997-64.856-9.096-23.947-61.829-144.467-207.261-165.966-10.737-1.594-21.625-2.413-32.362-2.413h-0.015zM415.401 27.661c-33.81-26.902-74.867-41.118-118.738-41.118-23.668 0-47.060 4.175-69.285 12.25 9.822 0.238 19.711 1.092 29.468 2.509 155.661 23.033 212.137 152.106 221.878 177.759 3.067 8.096 5.688 16.298 7.862 24.612 7.857-66.949-18.137-133.827-71.185-176.012z" horiz-adv-x="507" />
<glyph unicode="&#xe691;" d="M125.96 356.766c-69.471 0-125.96-60.613-125.96-135.137 0-74.516 56.489-135.13 125.96-135.13 34.691 0 67.090 15.003 91.242 42.296l10.394 11.757v-37.362c0-61.111-45.611-110.841-101.636-110.841-36.691 0-70.807 22.151-88.743 57.043l-19.535-14.947c22.843-41.085 63.922-66.392 108.279-66.392 69.436 0 125.933 60.613 125.933 135.13v120.161l-0.346 5.661c-3.633 71.644-58.786 127.76-125.587 127.76zM125.96 110.825c-56.060 0-101.663 49.7-101.663 110.805 0 61.111 45.603 110.839 101.663 110.839 56.025 0 101.636-49.728 101.636-110.839 0-61.105-45.611-110.805-101.636-110.805zM314.748 221.637v-131.594h24.325v131.594c0 58.724 42.268 107.061 95.366 110.632v24.331c-66.537-3.523-119.69-62.8-119.69-134.964zM1422.241 221.637v-131.594h24.296v131.594c0 58.724 42.268 107.061 95.394 110.632v24.331c-66.537-3.523-119.69-62.8-119.69-134.964zM1689.115 110.825c-58.842 0-106.743 49.7-106.743 110.805 0 61.111 47.901 110.839 106.743 110.839 32.435 0 63.195-15.474 83.401-41.632l20.062 13.792c-24.759 32.746-62.994 52.136-103.463 52.136-72.287 0-131.061-60.613-131.061-135.137 0-74.516 58.773-135.13 131.061-135.13 41.597 0 80.53 20.269 105.235 54.545l-20.38 13.363c-20.11-27.383-51.438-43.583-84.854-43.583zM1960.405 115.468l-112.459 241.271h-27.23l127.496-272.681-7.405-19.017c-16.947-43.514-57.478-72.745-100.785-72.745-9.639 0-19.134 1.447-28.241 4.325l-8.858-22.678c11.93-3.938 24.359-5.944 36.988-5.944h0.027c53.299 0 102.965 35.452 123.524 88.19l117.282 300.555h-26.414l-93.927-241.278zM2530.292 479.973h-23.175v-122.777h-38.075v-22.892h38.075v-243.797h23.175v243.797h40.856v22.892h-40.856zM3200.216 357.264h23.134v-266.639h-23.134v266.639zM3200.216 480h23.134v-23.397h-23.134v23.397zM2807.278 193.846c0-44.296-36.054-80.35-80.356-80.35-44.296 0-80.349 36.054-80.349 80.35v163.274h-24.303v-163.267c0-57.714 46.946-104.653 104.653-104.653 57.714 0 104.681 46.94 104.681 104.653v163.267h-24.325v-163.274zM3113.874 304.775l-10.463 12.194c-23.881 27.777-57.617 43.714-92.508 43.714-69.471 0-125.961-60.613-125.961-135.137 0-74.516 56.489-135.13 125.961-135.13 69.465 0 125.954 60.613 125.898 137.191v252.246h-22.927v-175.079zM3010.902 114.714c-56.032 0-101.643 49.735-101.643 110.833 0 61.112 45.61 110.84 101.643 110.84 56.026 0 101.636-49.728 101.636-110.839 0-61.105-45.611-110.833-101.636-110.833zM3406.817 359.174c-69.471 0-125.961-60.613-125.961-135.136 0-74.516 56.489-135.129 125.961-135.129s125.961 60.613 125.961 135.13c0 74.523-56.489 135.137-125.961 135.137zM3406.817 113.205c-56.060 0-101.664 49.728-101.664 110.833 0 61.112 45.611 110.84 101.664 110.84s101.664-49.728 101.664-110.839c0.007-61.105-45.604-110.833-101.664-110.833zM617.068 329.971c-21.653 17.481-47.576 26.822-74.924 27.002h-9.55v-24.331h8.913c21.916 0 42.76-7.488 60.351-21.625 18.144-14.629 27.75-36.753 30.22-69.644l0.664-8.879-8.442 2.81c-24.795 8.159-50.517 12.484-74.433 12.484-31.41 0-58.814-7.169-79.257-20.754-21.272-14.193-33.002-34.517-33.002-57.216 0-55.161 34.947-83.118 103.899-83.118 27.66 0 53.908 9.397 75.88 27.231 35.563 28.801 39.659 75.914 39.659 108.833 0.007 32.185-4.145 78.322-39.977 107.207zM631.94 202.039c-2.699-32.483-12.484-55.119-29.874-69.202-17.591-14.283-38.518-21.826-60.551-21.826-70.516 0-79.575 31.438-79.575 58.814 0 14.539 7.668 27.314 22.151 36.954 16.2 10.796 39.742 16.747 66.329 16.747 24.85 0 51.763-5.342 77.747-15.439l4.153-1.626-0.38-4.422zM2371.488 228.806c-10.74 2.962-13.695 3.744-26.013 6.851l-41.334 10.54c-42.448 10.83-42.331 34.774-42.268 45.023 0 21.805 19.418 43.804 70.544 43.804 35.085 0 62.752-14.919 79.976-25.923l12.948 18.062c-24.241 21.162-59.485 32.829-92.923 32.829-68.405 0-95.546-34.919-95.546-69.526-0.146-35.009 20.38-58.088 61.021-68.565l43.894-11.12c9.806-2.498 12.885-3.28 23.017-6.069 29.957-8.269 42.732-21.625 42.732-44.676 0-33.881-37.3-49.32-71.935-49.32-35.909 0-65.084 9.661-99.629 31.895l-11.294-19.044c34.137-25.805 69.381-37.825 110.923-37.825 57.043 0 96.903 30.538 96.903 74.287 0.007 34.898-19.972 57.403-61.015 68.779zM3709.193 228.806c-10.747 2.962-13.702 3.744-26.019 6.851l-41.334 10.54c-42.441 10.83-42.331 34.774-42.268 45.023 0 21.805 19.425 43.804 70.544 43.804 35.092 0 62.758-14.919 79.977-25.923l12.948 18.062c-24.241 21.162-59.485 32.829-92.923 32.829-68.398 0-95.539-34.919-95.539-69.526-0.146-35.009 20.373-58.088 61.015-68.565l43.894-11.12c9.813-2.498 12.885-3.28 23.017-6.069 29.957-8.269 42.739-21.625 42.739-44.676 0-33.881-37.307-49.32-71.941-49.32-35.901 0-65.084 9.661-99.622 31.895l-11.3-19.044c34.144-25.805 69.381-37.825 110.923-37.825 57.043 0 96.903 30.538 96.903 74.287 0.007 34.898-19.965 57.403-61.008 68.779zM970.5 356.24c-34.31 0-63.825-19.162-79.394-47.161-15.549 28.089-45.417 47.161-79.803 47.161-50.371 0-91.201-40.836-91.201-91.207l-0.056-174.907h24.297l0.117 174.906c0 36.919 29.929 66.841 66.841 66.841 36.926 0 66.841-29.923 66.841-66.841l-0.789-174.906h26.027l0.207 174.906h0.069c0 36.919 29.929 66.841 66.841 66.841s66.841-29.923 66.841-66.841l0.131-174.906h24.296l-0.055 174.906c0 50.372-40.836 91.207-91.215 91.207zM1376.207 221.893c0 74.703-58.855 135.268-131.447 135.268-72.606 0-131.448-60.565-131.448-135.268s58.842-135.261 131.448-135.261c45.181 0 84.564 23.757 108.134 59.541l-20.649 14.414c-19.031-29.245-50.953-48.697-87.485-48.697-53.998 0-98.21 42.116-104.847 96.218h236.412l-0.934 0.913c0.436 4.235 0.816 8.498 0.816 12.872zM1244.759 331.902c55.084 0 99.975-43.839 105.159-99.498h-210.323c5.183 55.659 50.081 99.498 105.166 99.498z" horiz-adv-x="3770" />
<glyph unicode="&#xf0e1;" d="M99.715 292.286v-283.143h-94.285v283.143h94.285zM105.715 379.714q0.285-20.857-14.428-34.857t-38.715-14h-0.572q-23.428 0-37.715 14t-14.286 34.857q0 21.143 14.714 35t38.428 13.857 38-13.857 14.572-35zM438.857 171.429v-162.286h-94v151.429q0 30-11.572 47t-36.143 17q-18 0-30.143-9.857t-18.143-24.428q-3.143-8.572-3.143-23.143v-158h-94q0.571 114 0.571 184.857t-0.286 84.572l-0.286 13.714h94v-41.143h-0.571q5.714 9.143 11.714 16t16.143 14.857 24.857 12.428 32.714 4.428q48.857 0 78.572-32.428t29.714-95z" />
</font>
</defs>
</svg>
